<svg width="250" height="81" viewBox="0 0 250 81" fill="none" xmlns="http://www.w3.org/2000/svg">
<path d="M239.756 61.3157C235.171 61.3157 232.457 58.7848 232.457 54.2978C232.457 49.6029 235.575 47.2798 239.475 47.2798C244.145 47.2798 245.833 50.3976 245.833 53.9554C245.833 54.3711 245.808 54.8235 245.772 55.2759H236.7C236.969 57.4522 238.142 58.3325 240.05 58.3325C241.456 58.3325 242.373 57.9045 243.192 56.9387L245.417 59.1639C244.194 60.5454 242.568 61.3157 239.756 61.3157ZM236.712 53.124H241.896C241.761 50.9967 240.844 50.1775 239.414 50.1775C238.02 50.1775 236.981 50.9844 236.712 53.124Z" fill="black"/>
<path d="M223.446 61.0712V47.5366H227.359V50.4465H227.408C227.811 48.4413 228.728 47.2798 230.574 47.2798C231.1 47.2798 231.528 47.3777 231.809 47.4877V51.1556C231.442 51.0456 230.88 50.9722 230.342 50.9722C228.19 50.9722 227.457 52.3171 227.457 54.5056V61.0712H223.446Z" fill="black"/>
<path d="M211.892 61.3157C208.958 61.3157 207.711 59.2739 207.711 56.364V47.5366H211.733V55.2881C211.733 56.9509 212.247 57.9412 213.824 57.9412C215.426 57.9412 216.367 56.8409 216.367 54.8357V47.5366H220.365V61.0712H216.465V58.1857H216.379C215.683 59.8974 214.374 61.3157 211.892 61.3157Z" fill="black"/>
<path d="M203.151 61.3035C200.045 61.3035 198.7 60.2398 198.7 57.2321V50.4954H196.756V48.7959L201.781 43.7831H202.698V47.5366H205.535V50.4954H202.698V56.4863C202.698 57.66 203.089 57.9534 204.116 57.9534C204.642 57.9534 205.119 57.8801 205.535 57.7578V61.0712C204.948 61.2179 204.043 61.3035 203.151 61.3035Z" fill="black"/>
<path d="M190.851 61.3157C186.559 61.3157 183.747 58.7237 183.747 54.2978C183.747 49.8718 186.559 47.2798 190.851 47.2798C193.528 47.2798 195.289 48.2702 196.389 49.6273L193.969 51.9259C193.223 50.9477 192.306 50.4587 191.071 50.4587C189.164 50.4587 187.941 51.7058 187.941 54.2978C187.941 56.902 189.164 58.1491 191.071 58.1491C192.306 58.1491 193.223 57.6478 193.969 56.6697L196.389 58.9682C195.277 60.3131 193.528 61.3157 190.851 61.3157Z" fill="black"/>
<path d="M173.061 61.3157C170.127 61.3157 168.88 59.2739 168.88 56.364V47.5366H172.903V55.2881C172.903 56.9509 173.416 57.9412 174.993 57.9412C176.595 57.9412 177.536 56.8409 177.536 54.8357V47.5366H181.534V61.0712H177.634V58.1857H177.549C176.852 59.8974 175.543 61.3157 173.061 61.3157Z" fill="black"/>
<path d="M158.647 61.0712V47.5366H162.559V50.4465H162.608C163.011 48.4413 163.928 47.2798 165.775 47.2798C166.3 47.2798 166.728 47.3777 167.009 47.4877V51.1556C166.643 51.0456 166.08 50.9722 165.542 50.9722C163.39 50.9722 162.657 52.3171 162.657 54.5056V61.0712H158.647Z" fill="black"/>
<path d="M153.732 61.3035C150.626 61.3035 149.281 60.2398 149.281 57.2321V50.4954H147.337V48.7959L152.362 43.7831H153.279V47.5366H156.116V50.4954H153.279V56.4863C153.279 57.66 153.67 57.9534 154.698 57.9534C155.223 57.9534 155.7 57.8801 156.116 57.7578V61.0712C155.529 61.2179 154.624 61.3035 153.732 61.3035Z" fill="black"/>
<path d="M140.894 61.3157C138.216 61.3157 136.334 60.5332 135.135 59.2617L137.434 56.9509C138.375 58.0024 139.476 58.3447 140.796 58.3447C142.092 58.3447 142.814 58.0146 142.814 57.281C142.814 56.4007 141.884 56.1439 140.026 55.6916C137.862 55.1536 135.783 54.1755 135.783 51.4124C135.783 48.857 137.703 47.2798 141.285 47.2798C143.657 47.2798 145.32 47.9645 146.567 49.1749L144.354 51.3757C143.535 50.5198 142.447 50.153 141.371 50.153C140.319 50.153 139.659 50.5076 139.659 51.2412C139.659 51.987 140.466 52.2315 142.08 52.6228C144.452 53.1852 146.689 53.9799 146.689 57.012C146.689 59.7263 144.574 61.3157 140.894 61.3157Z" fill="black"/>
<path d="M125.33 61.3157C123.007 61.3157 121.368 59.9097 121.368 57.4033C121.368 54.7135 123.435 53.2096 126.993 53.2096H129.487V52.5739C129.487 51.1801 128.778 50.4465 127.347 50.4465C126.027 50.4465 125.073 51.0089 124.291 51.9136L121.992 49.6273C123.447 48.1724 125.183 47.2798 127.885 47.2798C131.565 47.2798 133.485 48.906 133.485 52.5861V61.0712H129.585V58.5525H129.499C128.717 60.4109 127.384 61.3157 125.33 61.3157ZM125.293 56.8531C125.293 57.819 125.917 58.3936 126.944 58.3936C128.496 58.3936 129.487 57.0609 129.487 55.5571V55.1047H127.763C126.296 55.1047 125.293 55.606 125.293 56.8531Z" fill="black"/>
<path d="M112.553 61.0712V47.5366H116.466V50.4465H116.515C116.918 48.4413 117.835 47.2798 119.681 47.2798C120.207 47.2798 120.635 47.3777 120.916 47.4877V51.1556C120.549 51.0456 119.987 50.9722 119.449 50.9722C117.297 50.9722 116.564 52.3171 116.564 54.5056V61.0712H112.553Z" fill="black"/>
<path d="M103.824 46.5096C103.824 44.1132 105.059 42.536 108.616 42.536C109.411 42.536 110.181 42.6094 110.658 42.7316V45.6293C110.328 45.5193 109.864 45.4214 109.338 45.4214C108.103 45.4214 107.822 45.935 107.822 46.8152V47.5366H110.658V50.4954H107.822V61.0712H103.824V50.4954H102.124V47.5366H103.824V46.5096Z" fill="black"/>
<path d="M87.8561 61.0712V47.5366H91.7685V50.4098H91.8297C92.5266 48.7103 93.8592 47.2798 96.3167 47.2798C99.2633 47.2798 100.498 49.3094 100.498 52.2437V61.0712H96.5001V53.3197C96.5001 51.6569 95.9622 50.6665 94.385 50.6665C92.7833 50.6665 91.8663 51.7425 91.8663 53.7598V61.0712H87.8561Z" fill="black"/>
<path d="M80.5692 61.0712V43.8442H84.775V61.0712H80.5692Z" fill="black"/>
<path d="M194.959 37.3072C191.67 37.3072 189.433 34.8375 189.433 30.2893C189.433 26.0101 191.377 23.2714 194.8 23.2714C197.343 23.2714 198.798 24.6897 199.373 26.1813H199.458V18.7599H203.456V37.0627H199.556V34.3607H199.483C198.798 35.889 197.612 37.3072 194.959 37.3072ZM193.638 30.2893C193.638 32.7224 194.763 34.1406 196.573 34.1406C198.37 34.1406 199.507 32.7224 199.507 30.2893C199.507 27.844 198.37 26.4502 196.573 26.4502C194.763 26.4502 193.638 27.844 193.638 30.2893Z" fill="black"/>
<path d="M178.686 37.3072C175.751 37.3072 174.504 35.2654 174.504 32.3556V23.5281H178.527V31.2797C178.527 32.9424 179.04 33.9328 180.617 33.9328C182.219 33.9328 183.16 32.8324 183.16 30.8273V23.5281H187.158V37.0627H183.258V34.1773H183.173C182.476 35.889 181.168 37.3072 178.686 37.3072Z" fill="black"/>
<path d="M165.249 37.3072C161.116 37.3072 158.121 34.6786 158.121 30.2893C158.121 25.9123 161.116 23.2714 165.249 23.2714C169.394 23.2714 172.389 25.9123 172.389 30.2893C172.389 34.6786 169.394 37.3072 165.249 37.3072ZM162.315 30.2893C162.315 32.7224 163.439 34.1406 165.249 34.1406C167.058 34.1406 168.183 32.7224 168.183 30.2893C168.183 27.844 167.058 26.4502 165.249 26.4502C163.439 26.4502 162.315 27.844 162.315 30.2893Z" fill="black"/>
<path d="M154.93 37.295C152.069 37.295 150.981 35.9868 150.981 33.4804V18.7599H155.003V32.7468C155.003 33.6149 155.211 33.9939 156.018 33.9939C156.336 33.9939 156.617 33.9572 156.959 33.8961V37.0627C156.421 37.185 155.7 37.295 154.93 37.295Z" fill="black"/>
<path d="M142.422 37.3072C137.287 37.3072 133.363 34.4096 133.363 28.4431C133.363 22.4889 137.287 19.579 142.422 19.579C145.552 19.579 147.765 20.6427 149.428 22.5011L146.677 25.2521C145.687 23.9805 144.391 23.2225 142.459 23.2225C139.61 23.2225 137.74 24.9097 137.74 28.4431C137.74 31.9888 139.61 33.676 142.459 33.676C144.391 33.676 145.687 32.918 146.677 31.6464L149.428 34.3974C147.777 36.2435 145.528 37.3072 142.422 37.3072Z" fill="black"/>
<path d="M112.724 37.0627V19.8358H120.831C125.379 19.8358 127.421 22.171 127.421 25.5822C127.421 28.6632 125.452 31.512 121.038 31.512H116.93V37.0627H112.724ZM116.93 28.0641H120.464C122.322 28.0641 123.19 27.0493 123.19 25.6311C123.19 24.1517 122.237 23.3325 120.366 23.3325H116.93V28.0641Z" fill="black"/>
<path d="M93.9204 37.0627L100.058 19.8358H105.034L111.172 37.0627H106.905L105.731 33.3581H99.2633L98.0773 37.0627H93.9204ZM100.303 30.1059H104.692L103.2 25.4232C102.968 24.7141 102.65 23.7727 102.491 23.1002C102.32 23.7727 102.026 24.7141 101.794 25.4232L100.303 30.1059Z" fill="black"/>
<path d="M86.7679 37.3072C83.0511 37.3072 80.6425 36.0235 79.2732 34.2751L81.853 31.6953C82.9533 33.1381 84.6039 33.945 86.878 33.945C88.553 33.945 89.6656 33.4682 89.6656 32.2455C89.6656 30.9251 88.284 30.5216 85.851 29.9592C83.1 29.3112 80.1779 28.3453 80.1779 24.7019C80.1779 21.2174 82.9656 19.579 86.8902 19.579C89.6411 19.579 91.9275 20.386 93.4313 22.0854L90.9371 24.5796C89.8245 23.3814 88.5163 22.8312 86.7924 22.8312C84.9951 22.8312 84.2982 23.4915 84.2982 24.3962C84.2982 25.6066 85.4842 25.9123 87.6605 26.4258C90.7048 27.086 93.7859 27.9419 93.7859 31.891C93.7859 35.1799 91.4262 37.3072 86.7679 37.3072Z" fill="black"/>
<path fill-rule="evenodd" clip-rule="evenodd" d="M35.3539 4.1665L64.7725 21.1514L57.9956 25.0576L35.3537 11.9853L10.9369 26.0824V54.2765L35.3537 68.3736L57.9998 55.2989L64.7762 59.2049L35.3539 76.1919L4.16602 58.1855V22.1728L35.3539 4.1665ZM66.5418 56.1206V24.2335L59.7706 28.1365V52.2176L66.5418 56.1206Z" fill="black"/>
<path d="M37.1866 55.7288L66.0038 39.0912L66.0038 45.5019L37.1866 62.1395L37.1866 55.7288Z" fill="black"/>
<path fill-rule="evenodd" clip-rule="evenodd" d="M43.3567 40.6386L37.1901 44.1989V50.6096L43.3567 47.0493V40.6386ZM47.033 38.5161V44.9268L66.0073 33.972L66.0073 27.5613L47.033 38.5161Z" fill="black"/>
</svg>
