<svg width="680" height="219" viewBox="0 0 680 219" fill="none" xmlns="http://www.w3.org/2000/svg">
<path d="M652.139 166.779C639.668 166.779 632.286 159.895 632.286 147.691C632.286 134.92 640.766 128.602 651.374 128.602C664.078 128.602 668.667 137.082 668.667 146.759C668.667 147.89 668.601 149.121 668.501 150.351H643.825C644.557 156.271 647.75 158.665 652.937 158.665C656.762 158.665 659.256 157.501 661.484 154.874L667.537 160.926C664.211 164.684 659.788 166.779 652.139 166.779ZM643.859 144.498H657.959C657.593 138.712 655.099 136.483 651.208 136.483C647.417 136.483 644.59 138.678 643.859 144.498Z" fill="white"/>
<path d="M607.776 166.114V129.3H618.418V137.215H618.551C619.649 131.761 622.143 128.602 627.164 128.602C628.594 128.602 629.758 128.868 630.523 129.167V139.144C629.526 138.845 627.996 138.645 626.532 138.645C620.679 138.645 618.684 142.303 618.684 148.256V166.114H607.776Z" fill="white"/>
<path d="M576.35 166.779C568.368 166.779 564.976 161.226 564.976 153.311V129.3H575.917V150.384C575.917 154.907 577.314 157.601 581.604 157.601C585.961 157.601 588.521 154.608 588.521 149.154V129.3H599.396V166.114H588.787V158.266H588.554C586.659 162.922 583.101 166.779 576.35 166.779Z" fill="white"/>
<path d="M552.572 166.746C544.125 166.746 540.467 163.853 540.467 155.672V137.348H535.179V132.725L548.847 119.091H551.341V129.3H559.057V137.348H551.341V153.643C551.341 156.836 552.406 157.634 555.199 157.634C556.629 157.634 557.926 157.434 559.057 157.102V166.114C557.461 166.513 555 166.746 552.572 166.746Z" fill="white"/>
<path d="M519.117 166.779C507.444 166.779 499.795 159.729 499.795 147.691C499.795 135.652 507.444 128.602 519.117 128.602C526.4 128.602 531.188 131.296 534.181 134.987L527.597 141.239C525.568 138.578 523.074 137.248 519.715 137.248C514.527 137.248 511.202 140.64 511.202 147.691C511.202 154.774 514.527 158.166 519.715 158.166C523.074 158.166 525.568 156.803 527.597 154.142L534.181 160.394C531.155 164.052 526.4 166.779 519.117 166.779Z" fill="white"/>
<path d="M470.73 166.779C462.748 166.779 459.356 161.226 459.356 153.311V129.3H470.297V150.384C470.297 154.907 471.694 157.601 475.984 157.601C480.341 157.601 482.901 154.608 482.901 149.154V129.3H493.776V166.114H483.167V158.266H482.935C481.039 162.922 477.481 166.779 470.73 166.779Z" fill="white"/>
<path d="M431.521 166.114V129.3H442.163V137.215H442.296C443.394 131.761 445.888 128.602 450.909 128.602C452.339 128.602 453.503 128.868 454.268 129.167V139.144C453.271 138.845 451.741 138.645 450.277 138.645C444.424 138.645 442.429 142.303 442.429 148.256V166.114H431.521Z" fill="white"/>
<path d="M418.152 166.746C409.706 166.746 406.047 163.853 406.047 155.672V137.348H400.76V132.725L414.428 119.091H416.922V129.3H424.637V137.348H416.922V153.643C416.922 156.836 417.986 157.634 420.78 157.634C422.21 157.634 423.507 157.434 424.637 157.102V166.114C423.041 166.513 420.58 166.746 418.152 166.746Z" fill="white"/>
<path d="M383.234 166.779C375.951 166.779 370.83 164.651 367.571 161.192L373.823 154.907C376.383 157.767 379.376 158.698 382.968 158.698C386.493 158.698 388.455 157.8 388.455 155.805C388.455 153.411 385.928 152.712 380.873 151.482C374.987 150.018 369.333 147.358 369.333 139.842C369.333 132.892 374.554 128.602 384.298 128.602C390.75 128.602 395.273 130.464 398.665 133.756L392.645 139.742C390.417 137.415 387.458 136.417 384.531 136.417C381.671 136.417 379.875 137.381 379.875 139.377C379.875 141.405 382.07 142.07 386.46 143.135C392.911 144.664 398.997 146.826 398.997 155.073C398.997 162.456 393.244 166.779 383.234 166.779Z" fill="white"/>
<path d="M340.9 166.779C334.581 166.779 330.125 162.955 330.125 156.137C330.125 148.821 335.745 144.731 345.422 144.731H352.207V143.001C352.207 139.21 350.278 137.215 346.387 137.215C342.795 137.215 340.201 138.745 338.073 141.206L331.821 134.987C335.778 131.029 340.501 128.602 347.85 128.602C357.86 128.602 363.081 133.025 363.081 143.035V166.114H352.473V159.264H352.24C350.111 164.318 346.487 166.779 340.9 166.779ZM340.8 154.641C340.8 157.268 342.496 158.831 345.289 158.831C349.513 158.831 352.207 155.206 352.207 151.116V149.885H347.517C343.527 149.885 340.8 151.249 340.8 154.641Z" fill="white"/>
<path d="M306.147 166.114V129.3H316.789V137.215H316.922C318.02 131.761 320.514 128.602 325.535 128.602C326.965 128.602 328.129 128.868 328.894 129.167V139.144C327.897 138.845 326.367 138.645 324.904 138.645C319.051 138.645 317.055 142.303 317.055 148.256V166.114H306.147Z" fill="white"/>
<path d="M282.403 126.507C282.403 119.989 285.762 115.699 295.439 115.699C297.601 115.699 299.696 115.898 300.993 116.231V124.112C300.095 123.813 298.831 123.547 297.401 123.547C294.042 123.547 293.277 124.944 293.277 127.338V129.3H300.993V137.348H293.277V166.114H282.403V137.348H277.78V129.3H282.403V126.507Z" fill="white"/>
<path d="M238.971 166.114V129.3H249.613V137.115H249.779C251.675 132.493 255.3 128.602 261.984 128.602C269.999 128.602 273.357 134.122 273.357 142.104V166.114H262.483V145.03C262.483 140.507 261.019 137.814 256.73 137.814C252.373 137.814 249.879 140.74 249.879 146.227V166.114H238.971Z" fill="white"/>
<path d="M219.151 166.114V119.257H230.591V166.114H219.151Z" fill="white"/>
<path d="M530.291 101.476C521.345 101.476 515.259 94.7587 515.259 82.3876C515.259 70.7481 520.547 63.2988 529.858 63.2988C536.775 63.2988 540.733 67.1565 542.296 71.2136H542.529V51.0275H553.403V100.811H542.795V93.4617H542.595C540.733 97.6186 537.507 101.476 530.291 101.476ZM526.699 82.3876C526.699 89.0054 529.759 92.8631 534.68 92.8631C539.569 92.8631 542.662 89.0054 542.662 82.3876C542.662 75.7364 539.569 71.9453 534.68 71.9453C529.759 71.9453 526.699 75.7364 526.699 82.3876Z" fill="white"/>
<path d="M486.027 101.476C478.046 101.476 474.654 95.9226 474.654 88.0078V63.9972H485.595V85.0813C485.595 89.604 486.992 92.2977 491.282 92.2977C495.638 92.2977 498.199 89.3047 498.199 83.8508V63.9972H509.073V100.811H498.465V92.9628H498.232C496.337 97.6186 492.778 101.476 486.027 101.476Z" fill="white"/>
<path d="M449.479 101.476C438.239 101.476 430.091 94.3263 430.091 82.3876C430.091 70.482 438.239 63.2988 449.479 63.2988C460.753 63.2988 468.901 70.482 468.901 82.3876C468.901 94.3263 460.753 101.476 449.479 101.476ZM441.498 82.3876C441.498 89.0054 444.557 92.8631 449.479 92.8631C454.401 92.8631 457.461 89.0054 457.461 82.3876C457.461 75.7364 454.401 71.9453 449.479 71.9453C444.557 71.9453 441.498 75.7364 441.498 82.3876Z" fill="white"/>
<path d="M421.412 101.443C413.63 101.443 410.67 97.8847 410.67 91.0673V51.0275H421.611V89.0719C421.611 91.4331 422.176 92.464 424.371 92.464C425.236 92.464 426.001 92.3642 426.932 92.198V100.811C425.469 101.144 423.507 101.443 421.412 101.443Z" fill="white"/>
<path d="M387.391 101.476C373.424 101.476 362.749 93.5947 362.749 77.3659C362.749 61.1704 373.424 53.2556 387.391 53.2556C395.904 53.2556 401.924 56.1488 406.447 61.2037L398.964 68.6862C396.27 65.2276 392.745 63.1658 387.491 63.1658C379.742 63.1658 374.654 67.7551 374.654 77.3659C374.654 87.0101 379.742 91.5994 387.491 91.5994C392.745 91.5994 396.27 89.5375 398.964 86.0789L406.447 93.5615C401.957 98.5831 395.838 101.476 387.391 101.476Z" fill="white"/>
<path d="M306.613 100.811V53.954H328.662C341.033 53.954 346.586 60.3058 346.586 69.5841C346.586 77.9645 341.232 85.7131 329.227 85.7131H318.053V100.811H306.613ZM318.053 76.335H327.664C332.719 76.335 335.08 73.5748 335.08 69.7171C335.08 65.6932 332.486 63.4651 327.398 63.4651H318.053V76.335Z" fill="white"/>
<path d="M255.466 100.811L272.16 53.954H285.695L302.39 100.811H290.783L287.591 90.7347H269.999L266.773 100.811H255.466ZM272.825 81.8887H284.764L280.707 69.1518C280.075 67.223 279.21 64.6623 278.778 62.8332C278.312 64.6623 277.514 67.223 276.882 69.1518L272.825 81.8887Z" fill="white"/>
<path d="M236.011 101.476C225.902 101.476 219.35 97.9845 215.626 93.2289L222.642 86.2119C225.635 90.1361 230.125 92.331 236.311 92.331C240.867 92.331 243.893 91.034 243.893 87.7085C243.893 84.1168 240.135 83.0194 233.517 81.4896C226.035 79.7271 218.086 77.0999 218.086 67.1897C218.086 57.7119 225.669 53.2556 236.344 53.2556C243.826 53.2556 250.045 55.4505 254.136 60.073L247.351 66.8572C244.325 63.5981 240.767 62.1016 236.078 62.1016C231.189 62.1016 229.294 63.8974 229.294 66.3583C229.294 69.6506 232.519 70.482 238.439 71.8788C246.72 73.6746 255.1 76.0025 255.1 86.744C255.1 95.6898 248.682 101.476 236.011 101.476Z" fill="white"/>
<path fill-rule="evenodd" clip-rule="evenodd" d="M96.1651 11.3335L176.184 57.5323L157.75 68.1573L96.1646 32.6007L29.7508 70.9447V147.633L96.1646 185.977L157.762 150.414L176.194 161.038L96.1651 207.242L11.334 158.265V60.3107L96.1651 11.3335ZM180.996 152.649V65.9158L162.578 76.5319V142.032L180.996 152.649Z" fill="white"/>
<path d="M101.15 151.583L179.533 106.329L179.533 123.766L101.15 169.02L101.15 151.583Z" fill="white"/>
<path fill-rule="evenodd" clip-rule="evenodd" d="M117.933 110.538L101.159 120.222V137.659L117.933 127.975V110.538ZM127.932 104.764V122.202L179.542 92.4045L179.542 74.9673L127.932 104.764Z" fill="white"/>
</svg>
