<svg xmlns="http://www.w3.org/2000/svg" width="250" height="95" viewBox="0 0 250 95" fill="none">
  <path fill-rule="evenodd" clip-rule="evenodd" d="M4 59.581H28.0904L51.6679 36H4V59.581Z" fill="url(#paint0_linear_78_10)"/>
  <path fill-rule="evenodd" clip-rule="evenodd" d="M32.2878 40.4344L27.5964 40.4309V51.5871L23.498 40.4309H19.4338L15.9344 49.7607C15.5618 47.4085 13.1282 46.5961 11.2134 45.9866C9.9495 45.581 8.60773 44.9832 8.6207 44.3241C8.63132 43.7829 9.33993 43.2795 10.7454 43.3549C11.6898 43.4044 12.5222 43.4811 14.1799 44.2805L15.8106 41.4413C14.2978 40.6714 12.2074 40.1856 10.4954 40.1833H10.486C8.48865 40.1833 6.82501 40.8306 5.79216 41.8964C5.07294 42.6416 4.68621 43.5872 4.6697 44.633C4.64376 46.0726 5.17198 47.0937 6.28029 47.9084C7.21763 48.5958 8.41555 49.0403 9.4708 49.3681C10.7737 49.7713 11.8372 50.1227 11.8242 50.8714C11.8148 51.1426 11.711 51.3972 11.5153 51.6036C11.191 51.9384 10.6923 52.0646 10.0026 52.0764C8.67376 52.1047 7.68807 51.8972 6.11758 50.9692L4.66852 53.8473C6.2343 54.7387 8.08777 55.261 9.98015 55.261L10.2242 55.2575C11.8714 55.228 13.2001 54.7587 14.2613 53.9039C14.3226 53.8556 14.3768 53.806 14.4334 53.7553L13.963 55.0122H18.2253L18.9409 52.8369C19.6896 53.0927 20.5421 53.2342 21.4464 53.2342C22.3508 53.2342 23.1572 53.0986 23.8918 52.8581L24.5815 55.011H31.5332V50.5082H33.0495C36.7128 50.5082 38.8811 48.6406 38.8811 45.5138C38.8811 42.0297 36.7753 40.4309 32.2914 40.4309L32.2878 40.4344ZM21.4441 49.98C20.897 49.98 20.3829 49.8857 19.9408 49.7183L21.4276 45.0256H21.4559L22.9167 49.7312C22.4781 49.8869 21.9758 49.98 21.4441 49.98ZM32.5637 47.2835H31.5297V43.5023H32.5637C33.942 43.5023 35.0409 43.9598 35.0409 45.3676C35.0409 46.7754 33.942 47.2835 32.5637 47.2835Z" fill="white"/>
  <path d="M241.05 55.3684C237.385 55.3684 235.088 53.2696 235.088 49.4477C235.088 45.4693 237.709 43.5166 240.821 43.5166C244.643 43.5166 246 46.3151 246 49.0927C246 49.4269 245.979 49.7715 245.958 50.0952H237.876C238.064 52.2671 239.192 53.3009 241.176 53.3009C242.46 53.3009 243.316 52.925 244.089 52.027L245.624 53.5619C244.559 54.7628 243.254 55.3684 241.05 55.3684ZM237.918 48.4557H243.369C243.222 46.4404 242.241 45.5528 240.758 45.5528C239.296 45.5528 238.179 46.4404 237.918 48.4557Z" fill="white"/>
  <path d="M228.355 55.1596V43.7359H230.914V46.1898H230.955C231.342 44.3624 232.198 43.5166 233.629 43.5166C234.046 43.5166 234.401 43.5897 234.61 43.6628V46.1376C234.328 46.0645 233.911 46.0018 233.514 46.0018C231.634 46.0018 230.997 47.2967 230.997 49.4164V55.1596H228.355Z" fill="white"/>
  <path d="M219.325 55.3684C216.882 55.3684 215.775 53.6977 215.775 51.2647V43.7359H218.427V50.6381C218.427 52.1627 218.949 53.1025 220.484 53.1025C222.061 53.1025 223.043 52.0478 223.043 50.1265V43.7359H225.674V55.1596H223.126V52.7475H223.074C222.552 54.0632 221.518 55.3684 219.325 55.3684Z" fill="white"/>
  <path d="M212.144 55.3476C209.846 55.3476 208.834 54.5017 208.834 52.3089V45.7826H207.163V44.5713L210.974 40.7703H211.475V43.7359H213.95V45.7826H211.475V51.7972C211.475 52.7997 211.799 53.0712 212.697 53.0712C213.146 53.0712 213.574 52.9981 213.95 52.8937V55.1596C213.491 55.2745 212.812 55.3476 212.144 55.3476Z" fill="white"/>
  <path d="M202.466 55.3684C199.094 55.3684 196.713 53.2382 196.713 49.4477C196.713 45.6468 199.094 43.5166 202.466 43.5166C204.628 43.5166 206.121 44.3729 207.03 45.605L205.338 47.0983C204.68 46.1794 203.803 45.6677 202.581 45.6677C200.733 45.6677 199.48 46.9207 199.48 49.4477C199.48 51.9747 200.733 53.2278 202.581 53.2278C203.792 53.2278 204.67 52.7057 205.338 51.7868L207.03 53.2904C206.121 54.5226 204.628 55.3684 202.466 55.3684Z" fill="white"/>
  <path d="M188.403 55.3684C185.96 55.3684 184.853 53.6977 184.853 51.2647V43.7359H187.505V50.6381C187.505 52.1627 188.027 53.1025 189.562 53.1025C191.139 53.1025 192.121 52.0478 192.121 50.1265V43.7359H194.752V55.1596H192.204V52.7475H192.152C191.63 54.0632 190.596 55.3684 188.403 55.3684Z" fill="white"/>
  <path d="M177.013 55.1596V43.7359H179.572V46.1898H179.613C180 44.3624 180.856 43.5166 182.287 43.5166C182.704 43.5166 183.059 43.5897 183.268 43.6628V46.1376C182.986 46.0645 182.569 46.0018 182.172 46.0018C180.292 46.0018 179.655 47.2967 179.655 49.4164V55.1596H177.013Z" fill="white"/>
  <path d="M173.079 55.3476C170.782 55.3476 169.769 54.5017 169.769 52.3089V45.7826H168.098V44.5713L171.91 40.7703H172.411V43.7359H174.886V45.7826H172.411V51.7972C172.411 52.7997 172.735 53.0712 173.633 53.0712C174.082 53.0712 174.51 52.9981 174.886 52.8937V55.1596C174.426 55.2745 173.748 55.3476 173.079 55.3476Z" fill="white"/>
  <path d="M162.984 55.3684C160.99 55.3684 159.371 54.8046 158.264 53.6037L159.852 52.0165C160.76 53.019 161.742 53.3322 162.942 53.3322C164.101 53.3322 165.01 52.9981 165.01 52.0583C165.01 51.0245 164.039 50.7426 162.399 50.3144C160.635 49.855 158.797 49.1136 158.797 46.8581C158.797 44.7383 160.426 43.5166 163.13 43.5166C164.895 43.5166 166.347 44.0596 167.37 45.0725L165.824 46.6179C165.052 45.8243 164.101 45.5319 163.172 45.5319C162.076 45.5319 161.355 45.9079 161.355 46.7432C161.355 47.589 162.285 47.8605 163.83 48.2678C165.636 48.7272 167.579 49.3538 167.579 51.8703C167.579 54.0841 165.793 55.3684 162.984 55.3684Z" fill="white"/>
  <path d="M150.487 55.3684C148.493 55.3684 147.073 54.178 147.073 52.0478C147.073 49.5939 149.078 48.4453 152.043 48.4453H154.111V47.7874C154.111 46.4091 153.443 45.6572 152.054 45.6572C150.759 45.6572 149.85 46.2107 149.14 47.1087L147.564 45.5424C148.618 44.3938 150.049 43.5166 152.336 43.5166C155.239 43.5166 156.742 45.0307 156.742 47.7979V55.1596H154.194V53.0398H154.132C153.432 54.6375 152.283 55.3684 150.487 55.3684ZM149.704 51.7972C149.704 52.7475 150.352 53.3322 151.427 53.3322C153.129 53.3322 154.111 52.0478 154.111 50.7008V49.9594H152.492C150.978 49.9594 149.704 50.3667 149.704 51.7972Z" fill="white"/>
  <path d="M140.392 55.1596V43.7359H142.951V46.1898H142.993C143.379 44.3624 144.235 43.5166 145.666 43.5166C146.083 43.5166 146.438 43.5897 146.647 43.6628V46.1376C146.365 46.0645 145.948 46.0018 145.551 46.0018C143.671 46.0018 143.034 47.2967 143.034 49.4164V55.1596H140.392Z" fill="white"/>
  <path d="M133.712 42.6395C133.712 40.7286 134.641 39.3815 137.356 39.3815C137.951 39.3815 138.494 39.4442 138.829 39.5382V41.6266C138.557 41.5326 138.16 41.4595 137.732 41.4595C136.584 41.4595 136.354 41.9712 136.354 42.8483V43.7359H138.829V45.7826H136.354V55.1596H133.712V45.7826H132.26V43.7359H133.712V42.6395Z" fill="white"/>
  <path d="M120.975 55.1596V43.7359H123.533V46.1376H123.575C124.097 44.8323 125.141 43.5166 127.324 43.5166C129.778 43.5166 130.874 45.1874 130.874 47.6204V55.1596H128.232V48.2573C128.232 46.7223 127.7 45.793 126.165 45.793C124.588 45.793 123.617 46.8372 123.617 48.7586V55.1596H120.975Z" fill="white"/>
  <path d="M115.36 55.1596V40.4466H118.137V55.1596H115.36Z" fill="white"/>
  <path d="M101.143 55.3684C98.2396 55.3684 96.2974 53.1234 96.2974 49.4477C96.2974 45.887 98.083 43.5166 101.038 43.5166C103.262 43.5166 104.547 44.707 105.079 46.0018H105.131V39.5904H107.773V55.1596H105.225V52.8101H105.173C104.62 54.1258 103.555 55.3684 101.143 55.3684ZM99.0645 49.4477C99.0645 51.9016 100.328 53.2278 102.114 53.2278C103.889 53.2278 105.152 51.9016 105.152 49.4477C105.152 46.9834 103.889 45.6677 102.114 45.6677C100.328 45.6677 99.0645 46.9834 99.0645 49.4477Z" fill="white"/>
  <path d="M87.9566 55.3684C85.5131 55.3684 84.4063 53.6977 84.4063 51.2647V43.7359H87.0586V50.6381C87.0586 52.1627 87.5807 53.1025 89.1157 53.1025C90.6924 53.1025 91.674 52.0478 91.674 50.1265V43.7359H94.3054V55.1596H91.7575V52.7475H91.7053C91.1832 54.0632 90.1495 55.3684 87.9566 55.3684Z" fill="white"/>
  <path d="M76.7338 55.3684C73.3192 55.3684 70.9175 53.0503 70.9175 49.4477C70.9175 45.8452 73.3192 43.5166 76.7338 43.5166C80.1484 43.5166 82.5501 45.8452 82.5501 49.4477C82.5501 53.0503 80.1484 55.3684 76.7338 55.3684ZM73.6847 49.4477C73.6847 51.9016 74.9586 53.2278 76.7338 53.2278C78.509 53.2278 79.7829 51.9016 79.7829 49.4477C79.7829 46.9834 78.509 45.6677 76.7338 45.6677C74.9586 45.6677 73.6847 46.9834 73.6847 49.4477Z" fill="white"/>
  <path d="M68.4453 55.3476C66.2942 55.3476 65.4692 54.3242 65.4692 52.3507V39.5904H68.1216V51.8912C68.1216 52.7788 68.3304 53.0921 69.0927 53.0921C69.4164 53.0921 69.6983 53.0398 70.0011 52.9772V55.1596C69.5835 55.264 69.0196 55.3476 68.4453 55.3476Z" fill="white"/>
  <path d="M58.3084 55.3684C54.1211 55.3684 50.8214 52.9563 50.8214 47.7979C50.8214 42.6499 54.1211 40.2273 58.3084 40.2273C60.8563 40.2273 62.7568 41.1149 64.0934 42.6499L62.2243 44.5191C61.3784 43.4226 60.1776 42.6917 58.3189 42.6917C55.416 42.6917 53.693 44.4668 53.693 47.7979C53.693 51.1394 55.416 52.9145 58.3189 52.9145C60.1776 52.9145 61.3784 52.1836 62.2243 51.0872L64.0934 52.9563C62.7672 54.4809 60.8459 55.3684 58.3084 55.3684Z" fill="white"/>
  <defs>
    <linearGradient id="paint0_linear_78_10" x1="124.997" y1="36" x2="124.997" y2="59.581" gradientUnits="userSpaceOnUse">
      <stop stop-color="#00B8F1"/>
      <stop offset="0.02" stop-color="#00B5EF"/>
      <stop offset="0.31" stop-color="#0D90D8"/>
      <stop offset="0.58" stop-color="#1675C8"/>
      <stop offset="0.82" stop-color="#1C64BE"/>
      <stop offset="1" stop-color="#1E5FBB"/>
    </linearGradient>
  </defs>
</svg>