<svg xmlns="http://www.w3.org/2000/svg" width="180" height="68" viewBox="0 0 180 68" fill="none">
  <path fill-rule="evenodd" clip-rule="evenodd" d="M3 42H20.3672L37.3647 25H3V42Z" fill="url(#paint0_linear_77_2)"/>
  <path fill-rule="evenodd" clip-rule="evenodd" d="M23.3932 28.1969L20.0111 28.1943V36.237L17.0565 28.1943H14.1265L11.6037 34.9203C11.3351 33.2246 9.5807 32.6389 8.2003 32.1995C7.2891 31.9071 6.3218 31.4762 6.33115 31.001C6.3388 30.6109 6.84965 30.2479 7.86285 30.3023C8.5437 30.338 9.1438 30.3933 10.3389 30.9696L11.5145 28.9228C10.4239 28.3677 8.91685 28.0175 7.68265 28.0158H7.67585C6.23595 28.0158 5.0366 28.4824 4.292 29.2508C3.7735 29.788 3.4947 30.4698 3.4828 31.2237C3.4641 32.2616 3.8449 32.9977 4.6439 33.585C5.31965 34.0806 6.18325 34.401 6.944 34.6373C7.88325 34.928 8.64995 35.1813 8.6406 35.721C8.6338 35.9165 8.559 36.1002 8.4179 36.2489C8.18415 36.4903 7.8246 36.5813 7.32735 36.5898C6.3694 36.6102 5.6588 36.4605 4.5266 35.7916L3.48195 37.8665C4.61075 38.5091 5.94695 38.8856 7.3112 38.8856L7.48715 38.8831C8.6746 38.8618 9.63255 38.5235 10.3976 37.9073C10.4418 37.8724 10.4809 37.8367 10.5217 37.8002L10.1825 38.7063H13.2553L13.7712 37.138C14.311 37.3225 14.9255 37.4245 15.5775 37.4245C16.2294 37.4245 16.8108 37.3267 17.3404 37.1533L17.8376 38.7054H22.8492V35.4593H23.9423C26.5833 35.4593 28.1464 34.1129 28.1464 31.8587C28.1464 29.3469 26.6283 28.1943 23.3958 28.1943L23.3932 28.1969ZM15.5758 35.0784C15.1814 35.0784 14.8108 35.0104 14.492 34.8897L15.5639 31.5068H15.5843L16.6374 34.8991C16.3212 35.0113 15.9591 35.0784 15.5758 35.0784ZM23.5921 33.1345H22.8467V30.4086H23.5921C24.5858 30.4086 25.378 30.7383 25.378 31.7532C25.378 32.7681 24.5858 33.1345 23.5921 33.1345Z" fill="white"/>
  <path d="M173.894 38.9631C171.252 38.9631 169.596 37.4499 169.596 34.6947C169.596 31.8266 171.485 30.4189 173.728 30.4189C176.484 30.4189 177.462 32.4363 177.462 34.4388C177.462 34.6797 177.447 34.9281 177.432 35.1615H171.605C171.741 36.7273 172.554 37.4725 173.984 37.4725C174.91 37.4725 175.528 37.2015 176.085 36.5541L177.191 37.6607C176.423 38.5264 175.482 38.9631 173.894 38.9631ZM171.636 33.9796H175.565C175.46 32.5267 174.752 31.8868 173.683 31.8868C172.629 31.8868 171.824 32.5267 171.636 33.9796Z" fill="white"/>
  <path d="M164.742 38.8125V30.5769H166.586V32.346H166.616C166.895 31.0286 167.512 30.4189 168.543 30.4189C168.845 30.4189 169.1 30.4716 169.251 30.5243V32.3084C169.048 32.2557 168.747 32.2105 168.461 32.2105C167.106 32.2105 166.646 33.144 166.646 34.6721V38.8125H164.742Z" fill="white"/>
  <path d="M158.232 38.9631C156.47 38.9631 155.672 37.7586 155.672 36.0046V30.5769H157.585V35.5529C157.585 36.652 157.961 37.3295 159.068 37.3295C160.204 37.3295 160.912 36.5692 160.912 35.184V30.5769H162.809V38.8125H160.972V37.0735H160.935C160.558 38.0221 159.813 38.9631 158.232 38.9631Z" fill="white"/>
  <path d="M153.055 38.948C151.398 38.948 150.668 38.3382 150.668 36.7574V32.0524H149.464V31.1792L152.211 28.439H152.573V30.5769H154.357V32.0524H152.573V36.3885C152.573 37.1112 152.806 37.3069 153.454 37.3069C153.777 37.3069 154.086 37.2542 154.357 37.1789V38.8125C154.026 38.8953 153.536 38.948 153.055 38.948Z" fill="white"/>
  <path d="M146.078 38.9631C143.646 38.9631 141.93 37.4274 141.93 34.6947C141.93 31.9546 143.646 30.4189 146.078 30.4189C147.636 30.4189 148.713 31.0362 149.368 31.9244L148.148 33.0009C147.674 32.3385 147.042 31.9696 146.161 31.9696C144.828 31.9696 143.925 32.873 143.925 34.6947C143.925 36.5165 144.828 37.4198 146.161 37.4198C147.034 37.4198 147.666 37.0434 148.148 36.381L149.368 37.465C148.713 38.3533 147.636 38.9631 146.078 38.9631Z" fill="white"/>
  <path d="M135.94 38.9631C134.178 38.9631 133.38 37.7586 133.38 36.0046V30.5769H135.292V35.5529C135.292 36.652 135.669 37.3295 136.775 37.3295C137.912 37.3295 138.62 36.5692 138.62 35.184V30.5769H140.517V38.8125H138.68V37.0735H138.642C138.266 38.0221 137.521 38.9631 135.94 38.9631Z" fill="white"/>
  <path d="M127.729 38.8125V30.5769H129.573V32.346H129.603C129.882 31.0286 130.499 30.4189 131.53 30.4189C131.831 30.4189 132.087 30.4716 132.238 30.5243V32.3084C132.034 32.2557 131.733 32.2105 131.447 32.2105C130.092 32.2105 129.633 33.144 129.633 34.6721V38.8125H127.729Z" fill="white"/>
  <path d="M124.892 38.948C123.236 38.948 122.506 38.3382 122.506 36.7574V32.0524H121.301V31.1792L124.049 28.439H124.411V30.5769H126.195V32.0524H124.411V36.3885C124.411 37.1112 124.644 37.3069 125.291 37.3069C125.615 37.3069 125.924 37.2542 126.195 37.1789V38.8125C125.863 38.8953 125.374 38.948 124.892 38.948Z" fill="white"/>
  <path d="M117.615 38.9631C116.177 38.9631 115.01 38.5566 114.212 37.6908L115.356 36.5466C116.011 37.2693 116.719 37.4951 117.584 37.4951C118.42 37.4951 119.075 37.2542 119.075 36.5767C119.075 35.8314 118.375 35.6282 117.193 35.3195C115.921 34.9883 114.596 34.4538 114.596 32.8278C114.596 31.2996 115.77 30.4189 117.72 30.4189C118.992 30.4189 120.039 30.8103 120.776 31.5405L119.662 32.6547C119.105 32.0825 118.42 31.8718 117.75 31.8718C116.96 31.8718 116.44 32.1428 116.44 32.745C116.44 33.3548 117.11 33.5505 118.224 33.8441C119.527 34.1753 120.927 34.627 120.927 36.4412C120.927 38.0371 119.64 38.9631 117.615 38.9631Z" fill="white"/>
  <path d="M108.605 38.9631C107.168 38.9631 106.144 38.1049 106.144 36.5692C106.144 34.8001 107.589 33.972 109.727 33.972H111.218V33.4978C111.218 32.5041 110.736 31.9621 109.735 31.9621C108.801 31.9621 108.146 32.3611 107.634 33.0085L106.498 31.8793C107.258 31.0512 108.289 30.4189 109.938 30.4189C112.031 30.4189 113.115 31.5104 113.115 33.5053V38.8125H111.278V37.2843H111.233C110.728 38.4361 109.9 38.9631 108.605 38.9631ZM108.041 36.3885C108.041 37.0736 108.508 37.4951 109.283 37.4951C110.51 37.4951 111.218 36.5692 111.218 35.5981V35.0636H110.051C108.959 35.0636 108.041 35.3572 108.041 36.3885Z" fill="white"/>
  <path d="M101.328 38.8125V30.5769H103.172V32.346H103.202C103.481 31.0286 104.098 30.4189 105.129 30.4189C105.431 30.4189 105.686 30.4716 105.837 30.5243V32.3084C105.634 32.2557 105.333 32.2105 105.047 32.2105C103.692 32.2105 103.232 33.144 103.232 34.6721V38.8125H101.328Z" fill="white"/>
  <path d="M96.5117 29.7865C96.5117 28.4089 97.1817 27.4378 99.139 27.4378C99.5681 27.4378 99.9595 27.483 100.2 27.5507V29.0563C100.005 28.9886 99.7186 28.9359 99.41 28.9359C98.5819 28.9359 98.4163 29.3047 98.4163 29.9371V30.5769H100.2V32.0524H98.4163V38.8125H96.5117V32.0524H95.4653V30.5769H96.5117V29.7865Z" fill="white"/>
  <path d="M87.3295 38.8125V30.5769H89.1738V32.3084H89.2039C89.5803 31.3674 90.3331 30.4189 91.9064 30.4189C93.6755 30.4189 94.4659 31.6233 94.4659 33.3773V38.8125H92.5614V33.8365C92.5614 32.7299 92.1774 32.06 91.0708 32.06C89.9341 32.06 89.234 32.8127 89.234 34.1979V38.8125H87.3295Z" fill="white"/>
  <path d="M83.2812 38.8125V28.2057H85.2837V38.8125H83.2812Z" fill="white"/>
  <path d="M73.0318 38.9631C70.939 38.9631 69.5389 37.3446 69.5389 34.6947C69.5389 32.1277 70.8261 30.4189 72.9565 30.4189C74.56 30.4189 75.4859 31.277 75.8698 32.2105H75.9075V27.5884H77.812V38.8125H75.9752V37.1187H75.9376C75.5386 38.0672 74.7708 38.9631 73.0318 38.9631ZM71.5338 34.6947C71.5338 36.4638 72.4446 37.4198 73.7319 37.4198C75.0117 37.4198 75.9225 36.4638 75.9225 34.6947C75.9225 32.9181 75.0117 31.9696 73.7319 31.9696C72.4446 31.9696 71.5338 32.9181 71.5338 34.6947Z" fill="white"/>
  <path d="M63.5258 38.9631C61.7643 38.9631 60.9664 37.7586 60.9664 36.0046V30.5769H62.8785V35.5529C62.8785 36.652 63.2548 37.3295 64.3614 37.3295C65.4982 37.3295 66.2058 36.5692 66.2058 35.184V30.5769H68.1028V38.8125H66.266V37.0735H66.2284C65.852 38.0221 65.1067 38.9631 63.5258 38.9631Z" fill="white"/>
  <path d="M55.4351 38.9631C52.9735 38.9631 51.2421 37.2919 51.2421 34.6947C51.2421 32.0976 52.9735 30.4189 55.4351 30.4189C57.8968 30.4189 59.6282 32.0976 59.6282 34.6947C59.6282 37.2919 57.8968 38.9631 55.4351 38.9631ZM53.237 34.6947C53.237 36.4638 54.1554 37.4198 55.4351 37.4198C56.7149 37.4198 57.6333 36.4638 57.6333 34.6947C57.6333 32.9181 56.7149 31.9696 55.4351 31.9696C54.1554 31.9696 53.237 32.9181 53.237 34.6947Z" fill="white"/>
  <path d="M49.4598 38.948C47.909 38.948 47.3143 38.2103 47.3143 36.7875V27.5884H49.2264V36.4563C49.2264 37.0961 49.377 37.322 49.9265 37.322C50.1599 37.322 50.3631 37.2843 50.5814 37.2392V38.8125C50.2803 38.8878 49.8738 38.948 49.4598 38.948Z" fill="white"/>
  <path d="M42.152 38.9631C39.1333 38.9631 36.7544 37.2241 36.7544 33.5053C36.7544 29.794 39.1333 28.0476 42.152 28.0476C43.9888 28.0476 45.3589 28.6874 46.3224 29.794L44.9749 31.1415C44.3652 30.3511 43.4995 29.8242 42.1595 29.8242C40.0667 29.8242 38.8246 31.1039 38.8246 33.5053C38.8246 35.9142 40.0667 37.194 42.1595 37.194C43.4995 37.194 44.3652 36.667 44.9749 35.8766L46.3224 37.2241C45.3664 38.3232 43.9812 38.9631 42.152 38.9631Z" fill="white"/>
  <defs>
    <linearGradient id="paint0_linear_77_2" x1="90.2289" y1="25" x2="90.2289" y2="42" gradientUnits="userSpaceOnUse">
      <stop stop-color="#00B8F1"/>
      <stop offset="0.02" stop-color="#00B5EF"/>
      <stop offset="0.31" stop-color="#0D90D8"/>
      <stop offset="0.58" stop-color="#1675C8"/>
      <stop offset="0.82" stop-color="#1C64BE"/>
      <stop offset="1" stop-color="#1E5FBB"/>
    </linearGradient>
  </defs>
</svg>