<svg width="300" height="66" viewBox="0 0 300 66" fill="none" xmlns="http://www.w3.org/2000/svg">
<g clip-path="url(#clip0_78_18)">
<path d="M300 0H0V65.8223H300V0Z" fill="white"/>
<path fill-rule="evenodd" clip-rule="evenodd" d="M1.76562 47.5237H31.1027L59.8152 18.6543H1.76562V47.5237Z" fill="url(#paint0_linear_78_18)"/>
<path fill-rule="evenodd" clip-rule="evenodd" d="M36.2143 24.0832L30.5011 24.0789V37.737L25.5101 24.0789H20.5608L16.2992 35.5011C15.8455 32.6213 12.8819 31.6268 10.5501 30.8805C9.01088 30.384 7.37689 29.6521 7.39269 28.8452C7.40561 28.1827 8.26855 27.5663 9.98007 27.6587C11.1302 27.7193 12.1439 27.8131 14.1627 28.7918L16.1484 25.3159C14.3063 24.3733 11.7605 23.7786 9.67567 23.7757H9.66419C7.23187 23.7757 5.2059 24.5682 3.9481 25.8731C3.07224 26.7854 2.60128 27.943 2.58118 29.2234C2.54959 30.9859 3.19285 32.2359 4.54254 33.2334C5.68404 34.0749 7.14285 34.6191 8.42793 35.0204C10.0145 35.5141 11.3097 35.9442 11.2939 36.8608C11.2824 37.1928 11.156 37.5046 10.9177 37.7572C10.5228 38.1672 9.91546 38.3216 9.07549 38.336C7.4573 38.3707 6.25694 38.1166 4.3444 36.9806L2.57975 40.5041C4.48654 41.5954 6.74369 42.2349 9.04821 42.2349L9.34543 42.2305C11.3513 42.1944 12.9695 41.6199 14.2617 40.5734C14.3364 40.5142 14.4025 40.4536 14.4714 40.3915L13.8985 41.9303H19.089L19.9606 39.2671C20.8724 39.5803 21.9105 39.7535 23.0118 39.7535C24.1131 39.7535 25.0952 39.5875 25.9897 39.2931L26.8297 41.9288H35.2954V36.4162H37.1419C41.603 36.4162 44.2435 34.1298 44.2435 30.3017C44.2435 26.0362 41.6791 24.0789 36.2186 24.0789L36.2143 24.0832ZM23.0089 35.7695C22.3427 35.7695 21.7166 35.6541 21.1782 35.4491L22.9888 29.7041H23.0233L24.8023 35.465C24.2681 35.6555 23.6565 35.7695 23.0089 35.7695ZM36.5503 32.4683H35.2911V27.8391H36.5503C38.2288 27.8391 39.567 28.3992 39.567 30.1227C39.567 31.8462 38.2288 32.4683 36.5503 32.4683Z" fill="white"/>
<path d="M290.444 42.3664C285.98 42.3664 283.183 39.7968 283.183 35.1179C283.183 30.2472 286.375 27.8566 290.164 27.8566C294.818 27.8566 296.472 31.2827 296.472 34.6833C296.472 35.0923 296.446 35.5142 296.421 35.9105H286.578C286.807 38.5696 288.18 39.8352 290.597 39.8352C292.161 39.8352 293.203 39.375 294.144 38.2755L296.014 40.1548C294.717 41.6249 293.127 42.3664 290.444 42.3664ZM286.629 33.9034H293.267C293.089 31.4361 291.894 30.3495 290.088 30.3495C288.308 30.3495 286.947 31.4361 286.629 33.9034Z" fill="#012A86"/>
<path d="M274.984 42.1107V28.1251H278.099V31.1293H278.15C278.621 28.8921 279.664 27.8566 281.406 27.8566C281.914 27.8566 282.347 27.9461 282.601 28.0356V31.0654C282.258 30.9759 281.749 30.8992 281.266 30.8992C278.977 30.8992 278.201 32.4844 278.201 35.0796V42.1107H274.984Z" fill="#012A86"/>
<path d="M263.987 42.3664C261.012 42.3664 259.664 40.321 259.664 37.3423V28.1251H262.894V36.5753C262.894 38.4417 263.53 39.5923 265.399 39.5923C267.319 39.5923 268.514 38.3011 268.514 35.9489V28.1251H271.719V42.1107H268.616V39.1576H268.552C267.917 40.7684 266.658 42.3664 263.987 42.3664Z" fill="#012A86"/>
<path d="M255.242 42.3408C252.444 42.3408 251.21 41.3053 251.21 38.6207V30.6307H249.176V29.1478L253.817 24.4944H254.428V28.1251H257.441V30.6307H254.428V37.9943C254.428 39.2216 254.822 39.5539 255.915 39.5539C256.462 39.5539 256.984 39.4644 257.441 39.3366V42.1107C256.882 42.2513 256.055 42.3408 255.242 42.3408Z" fill="#012A86"/>
<path d="M243.456 42.3664C239.349 42.3664 236.45 39.7585 236.45 35.1179C236.45 30.4645 239.349 27.8566 243.456 27.8566C246.089 27.8566 247.907 28.9049 249.014 30.4134L246.953 32.2415C246.152 31.1165 245.084 30.4901 243.596 30.4901C241.346 30.4901 239.82 32.0242 239.82 35.1179C239.82 38.2116 241.346 39.7457 243.596 39.7457C245.071 39.7457 246.14 39.1065 246.953 37.9815L249.014 39.8224C247.907 41.3309 246.089 42.3664 243.456 42.3664Z" fill="#012A86"/>
<path d="M226.331 42.3664C223.355 42.3664 222.007 40.321 222.007 37.3423V28.1251H225.237V36.5753C225.237 38.4417 225.873 39.5923 227.742 39.5923C229.662 39.5923 230.858 38.3011 230.858 35.9489V28.1251H234.062V42.1107H230.959V39.1576H230.896C230.26 40.7684 229.001 42.3664 226.331 42.3664Z" fill="#012A86"/>
<path d="M212.46 42.1107V28.1251H215.576V31.1293H215.626C216.097 28.8921 217.14 27.8566 218.882 27.8566C219.391 27.8566 219.823 27.9461 220.077 28.0356V31.0654C219.734 30.9759 219.225 30.8992 218.742 30.8992C216.453 30.8992 215.677 32.4844 215.677 35.0796V42.1107H212.46Z" fill="#012A86"/>
<path d="M207.669 42.3408C204.872 42.3408 203.638 41.3053 203.638 38.6207V30.6307H201.603V29.1478L206.245 24.4944H206.855V28.1251H209.869V30.6307H206.855V37.9943C206.855 39.2216 207.249 39.5539 208.343 39.5539C208.89 39.5539 209.411 39.4644 209.869 39.3366V42.1107C209.31 42.2513 208.483 42.3408 207.669 42.3408Z" fill="#012A86"/>
<path d="M195.375 42.3664C192.947 42.3664 190.976 41.6761 189.628 40.2059L191.561 38.2628C192.667 39.49 193.862 39.8735 195.325 39.8735C196.736 39.8735 197.842 39.4644 197.842 38.3139C197.842 37.0483 196.66 36.7031 194.663 36.179C192.514 35.6165 190.276 34.7088 190.276 31.9475C190.276 29.3523 192.26 27.8566 195.553 27.8566C197.703 27.8566 199.47 28.5214 200.716 29.7614L198.834 31.6535C197.893 30.6819 196.736 30.3239 195.604 30.3239C194.269 30.3239 193.392 30.7841 193.392 31.8069C193.392 32.8424 194.523 33.1747 196.405 33.6733C198.605 34.2358 200.971 35.0029 200.971 38.0838C200.971 40.794 198.796 42.3664 195.375 42.3664Z" fill="#012A86"/>
<path d="M180.157 42.3664C177.728 42.3664 175.999 40.909 175.999 38.3011C175.999 35.2969 178.44 33.8906 182.052 33.8906H184.57V33.0853C184.57 31.3978 183.756 30.4773 182.064 30.4773C180.488 30.4773 179.381 31.1549 178.517 32.2543L176.596 30.3367C177.881 28.9305 179.623 27.8566 182.408 27.8566C185.943 27.8566 187.774 29.7103 187.774 33.098V42.1107H184.671V39.5156H184.595C183.743 41.4715 182.344 42.3664 180.157 42.3664ZM179.203 37.9943C179.203 39.1576 179.992 39.8735 181.301 39.8735C183.374 39.8735 184.57 38.3011 184.57 36.652V35.7443H182.599C180.755 35.7443 179.203 36.2429 179.203 37.9943Z" fill="#012A86"/>
<path d="M167.863 42.1107V28.1251H170.979V31.1293H171.03C171.5 28.8921 172.543 27.8566 174.285 27.8566C174.794 27.8566 175.226 27.9461 175.48 28.0356V31.0654C175.137 30.9759 174.628 30.8992 174.145 30.8992C171.856 30.8992 171.081 32.4844 171.081 35.0796V42.1107H167.863Z" fill="#012A86"/>
<path d="M159.728 26.7828C159.728 24.4433 160.86 22.7942 164.166 22.7942C164.891 22.7942 165.552 22.8709 165.959 22.9859V25.5427C165.628 25.4277 165.145 25.3382 164.624 25.3382C163.225 25.3382 162.945 25.9646 162.945 27.0385V28.1251H165.959V30.6307H162.945V42.1107H159.728V30.6307H157.96V28.1251H159.728V26.7828Z" fill="#012A86"/>
<path d="M144.217 42.1107V28.1251H147.333V31.0654H147.383C148.019 29.4674 149.291 27.8566 151.949 27.8566C154.937 27.8566 156.272 29.9021 156.272 32.8807V42.1107H153.055V33.6605C153.055 31.7813 152.406 30.6435 150.537 30.6435C148.617 30.6435 147.434 31.9219 147.434 34.2742V42.1107H144.217Z" fill="#012A86"/>
<path d="M137.379 42.1107V24.0981H140.761V42.1107H137.379Z" fill="#012A86"/>
<path d="M120.065 42.3664C116.53 42.3664 114.165 39.6179 114.165 35.1179C114.165 30.7586 116.339 27.8566 119.938 27.8566C122.647 27.8566 124.211 29.314 124.859 30.8992H124.923V23.0499H128.14V42.1107H125.037V39.2343H124.974C124.3 40.8451 123.003 42.3664 120.065 42.3664ZM117.535 35.1179C117.535 38.1221 119.073 39.7457 121.248 39.7457C123.409 39.7457 124.948 38.1221 124.948 35.1179C124.948 32.1009 123.409 30.4901 121.248 30.4901C119.073 30.4901 117.535 32.1009 117.535 35.1179Z" fill="#012A86"/>
<path d="M104.007 42.3664C101.032 42.3664 99.6838 40.321 99.6838 37.3423V28.1251H102.914V36.5753C102.914 38.4417 103.55 39.5923 105.419 39.5923C107.339 39.5923 108.534 38.3011 108.534 35.9489V28.1251H111.739V42.1107H108.636V39.1576H108.573C107.937 40.7684 106.678 42.3664 104.007 42.3664Z" fill="#012A86"/>
<path d="M90.3403 42.3664C86.1821 42.3664 83.2573 39.5284 83.2573 35.1179C83.2573 30.7074 86.1821 27.8566 90.3403 27.8566C94.4986 27.8566 97.4233 30.7074 97.4233 35.1179C97.4233 39.5284 94.4986 42.3664 90.3403 42.3664ZM86.6272 35.1179C86.6272 38.1221 88.1785 39.7457 90.3403 39.7457C92.5021 39.7457 94.0535 38.1221 94.0535 35.1179C94.0535 32.1009 92.5021 30.4901 90.3403 30.4901C88.1785 30.4901 86.6272 32.1009 86.6272 35.1179Z" fill="#012A86"/>
<path d="M80.2466 42.3408C77.627 42.3408 76.6224 41.088 76.6224 38.6718V23.0499H79.8524V38.1094C79.8524 39.196 80.1067 39.5795 81.035 39.5795C81.4292 39.5795 81.7726 39.5156 82.1413 39.4389V42.1107C81.6327 42.2386 80.946 42.3408 80.2466 42.3408Z" fill="#012A86"/>
<path d="M67.9021 42.3664C62.8028 42.3664 58.7844 39.4133 58.7844 33.098C58.7844 26.7956 62.8028 23.8297 67.9021 23.8297C71.0049 23.8297 73.3192 24.9163 74.9469 26.7956L72.6707 29.0839C71.6407 27.7416 70.1783 26.8467 67.9148 26.8467C64.3796 26.8467 62.2814 29.02 62.2814 33.098C62.2814 37.1889 64.3796 39.3622 67.9148 39.3622C70.1783 39.3622 71.6407 38.4673 72.6707 37.125L74.9469 39.4133C73.332 41.2798 70.9921 42.3664 67.9021 42.3664Z" fill="#012A86"/>
</g>
<defs>
<linearGradient id="paint0_linear_78_18" x1="149.115" y1="18.6543" x2="149.115" y2="47.5237" gradientUnits="userSpaceOnUse">
<stop stop-color="#00B8F1"/>
<stop offset="0.02" stop-color="#00B5EF"/>
<stop offset="0.31" stop-color="#0D90D8"/>
<stop offset="0.58" stop-color="#1675C8"/>
<stop offset="0.82" stop-color="#1C64BE"/>
<stop offset="1" stop-color="#1E5FBB"/>
</linearGradient>
<clipPath id="clip0_78_18">
<rect width="300" height="66" fill="white"/>
</clipPath>
</defs>
</svg>
