<svg width="180" height="58" viewBox="0 0 180 58" fill="none" xmlns="http://www.w3.org/2000/svg">
<path d="M172.625 44.1474C169.324 44.1474 167.37 42.3252 167.37 39.0945C167.37 35.7142 169.614 34.0416 172.422 34.0416C175.785 34.0416 177 36.2864 177 38.848C177 39.1473 176.982 39.473 176.956 39.7987H170.424C170.618 41.3657 171.463 41.9995 172.836 41.9995C173.849 41.9995 174.509 41.6914 175.099 40.996L176.701 42.5981C175.82 43.5928 174.65 44.1474 172.625 44.1474ZM170.433 38.2494H174.165C174.069 36.7177 173.408 36.1279 172.378 36.1279C171.375 36.1279 170.627 36.7089 170.433 38.2494Z" fill="black"/>
<path d="M160.882 43.9714V34.2265H163.699V36.3216H163.734C164.024 34.8779 164.685 34.0416 166.014 34.0416C166.392 34.0416 166.701 34.112 166.903 34.1913V36.8322C166.639 36.7529 166.234 36.7001 165.847 36.7001C164.297 36.7001 163.769 37.6684 163.769 39.2442V43.9714H160.882Z" fill="black"/>
<path d="M152.563 44.1474C150.45 44.1474 149.552 42.6773 149.552 40.5822V34.2265H152.449V39.8076C152.449 41.0048 152.818 41.7178 153.954 41.7178C155.107 41.7178 155.785 40.9255 155.785 39.4818V34.2265H158.663V43.9714H155.855V41.8939H155.794C155.292 43.1263 154.35 44.1474 152.563 44.1474Z" fill="black"/>
<path d="M146.269 44.1386C144.033 44.1386 143.065 43.3728 143.065 41.2072V36.3568H141.665V35.1332L145.283 31.524H145.943V34.2265H147.985V36.3568H145.943V40.6702C145.943 41.5153 146.225 41.7266 146.964 41.7266C147.343 41.7266 147.686 41.6738 147.985 41.5858V43.9714C147.563 44.077 146.911 44.1386 146.269 44.1386Z" fill="black"/>
<path d="M137.413 44.1474C134.323 44.1474 132.299 42.2812 132.299 39.0945C132.299 35.9078 134.323 34.0416 137.413 34.0416C139.341 34.0416 140.609 34.7546 141.401 35.7318L139.658 37.3867C139.121 36.6825 138.461 36.3304 137.572 36.3304C136.198 36.3304 135.318 37.2283 135.318 39.0945C135.318 40.9695 136.198 41.8674 137.572 41.8674C138.461 41.8674 139.121 41.5065 139.658 40.8023L141.401 42.4572C140.6 43.4256 139.341 44.1474 137.413 44.1474Z" fill="black"/>
<path d="M124.605 44.1474C122.492 44.1474 121.594 42.6773 121.594 40.5822V34.2265H124.49V39.8076C124.49 41.0048 124.86 41.7178 125.996 41.7178C127.149 41.7178 127.827 40.9255 127.827 39.4818V34.2265H130.705V43.9714H127.897V41.8939H127.835C127.334 43.1263 126.392 44.1474 124.605 44.1474Z" fill="black"/>
<path d="M114.226 43.9714V34.2265H117.043V36.3216H117.078C117.369 34.8779 118.029 34.0416 119.358 34.0416C119.737 34.0416 120.045 34.112 120.247 34.1913V36.8322C119.983 36.7529 119.578 36.7001 119.191 36.7001C117.642 36.7001 117.113 37.6684 117.113 39.2442V43.9714H114.226Z" fill="black"/>
<path d="M110.687 44.1386C108.451 44.1386 107.483 43.3728 107.483 41.2072V36.3568H106.083V35.1332L109.701 31.524H110.362V34.2265H112.404V36.3568H110.362V40.6702C110.362 41.5153 110.643 41.7266 111.383 41.7266C111.761 41.7266 112.105 41.6738 112.404 41.5858V43.9714C111.981 44.077 111.33 44.1386 110.687 44.1386Z" fill="black"/>
<path d="M101.444 44.1474C99.5163 44.1474 98.1606 43.584 97.2979 42.6685L98.9529 41.0048C99.6307 41.7618 100.423 42.0083 101.374 42.0083C102.307 42.0083 102.826 41.7706 102.826 41.2424C102.826 40.6086 102.157 40.4238 100.819 40.098C99.261 39.7107 97.7645 39.0065 97.7645 37.017C97.7645 35.1772 99.1466 34.0416 101.726 34.0416C103.434 34.0416 104.631 34.5346 105.529 35.4061L103.935 36.9906C103.346 36.3744 102.562 36.1103 101.787 36.1103C101.03 36.1103 100.555 36.3656 100.555 36.8938C100.555 37.4308 101.136 37.6068 102.298 37.8885C104.006 38.2934 105.617 38.8656 105.617 41.0488C105.617 43.003 104.094 44.1474 101.444 44.1474Z" fill="black"/>
<path d="M90.2379 44.1474C88.5654 44.1474 87.3858 43.1351 87.3858 41.3305C87.3858 39.3938 88.8735 38.311 91.4351 38.311H93.231V37.8533C93.231 36.8498 92.7204 36.3216 91.6904 36.3216C90.7397 36.3216 90.0531 36.7265 89.4897 37.3779L87.8347 35.7318C88.8823 34.6842 90.1323 34.0416 92.0778 34.0416C94.7275 34.0416 96.1095 35.2124 96.1095 37.8621V43.9714H93.3014V42.1579H93.2398C92.6764 43.496 91.7168 44.1474 90.2379 44.1474ZM90.2115 40.9343C90.2115 41.6298 90.6605 42.0435 91.3999 42.0435C92.5179 42.0435 93.231 41.084 93.231 40.0012V39.6755H91.9897C90.9334 39.6755 90.2115 40.0364 90.2115 40.9343Z" fill="black"/>
<path d="M81.0389 43.9714V34.2265H83.8558V36.3216H83.891C84.1815 34.8779 84.8417 34.0416 86.171 34.0416C86.5495 34.0416 86.8576 34.112 87.0601 34.1913V36.8322C86.796 36.7529 86.3911 36.7001 86.0037 36.7001C84.4544 36.7001 83.9262 37.6684 83.9262 39.2442V43.9714H81.0389Z" fill="black"/>
<path d="M74.7535 33.487C74.7535 31.7616 75.6426 30.6261 78.2043 30.6261C78.7765 30.6261 79.3311 30.6789 79.6744 30.7669V32.8532C79.4367 32.774 79.1022 32.7036 78.7237 32.7036C77.8346 32.7036 77.6321 33.0733 77.6321 33.7071V34.2265H79.6744V36.3568H77.6321V43.9714H74.7535V36.3568H73.5299V34.2265H74.7535V33.487Z" fill="black"/>
<path d="M63.2569 43.9714V34.2265H66.0738V36.2952H66.1178C66.6196 35.0716 67.5791 34.0416 69.3485 34.0416C71.47 34.0416 72.3591 35.5029 72.3591 37.6156V43.9714H69.4806V38.3903C69.4806 37.1931 69.0932 36.48 67.9576 36.48C66.8044 36.48 66.1442 37.2547 66.1442 38.7072V43.9714H63.2569Z" fill="black"/>
<path d="M58.0103 43.9714V31.568H61.0385V43.9714H58.0103Z" fill="black"/>
<path d="M140.371 26.8613C138.003 26.8613 136.392 25.0831 136.392 21.8084C136.392 18.7274 137.792 16.7555 140.256 16.7555C142.087 16.7555 143.135 17.7767 143.549 18.8506H143.61V13.5072H146.489V26.6853H143.681V24.7398H143.628C143.135 25.8402 142.281 26.8613 140.371 26.8613ZM139.42 21.8084C139.42 23.5602 140.23 24.5814 141.533 24.5814C142.827 24.5814 143.646 23.5602 143.646 21.8084C143.646 20.0478 142.827 19.0443 141.533 19.0443C140.23 19.0443 139.42 20.0478 139.42 21.8084Z" fill="black"/>
<path d="M128.654 26.8613C126.541 26.8613 125.643 25.3912 125.643 23.2961V16.9404H128.54V22.5215C128.54 23.7187 128.909 24.4317 130.045 24.4317C131.198 24.4317 131.876 23.6394 131.876 22.1958V16.9404H134.755V26.6853H131.946V24.6078H131.885C131.383 25.8402 130.441 26.8613 128.654 26.8613Z" fill="black"/>
<path d="M118.98 26.8613C116.004 26.8613 113.848 24.9687 113.848 21.8084C113.848 18.657 116.004 16.7555 118.98 16.7555C121.964 16.7555 124.121 18.657 124.121 21.8084C124.121 24.9687 121.964 26.8613 118.98 26.8613ZM116.867 21.8084C116.867 23.5602 117.677 24.5814 118.98 24.5814C120.282 24.5814 121.092 23.5602 121.092 21.8084C121.092 20.0478 120.282 19.0443 118.98 19.0443C117.677 19.0443 116.867 20.0478 116.867 21.8084Z" fill="black"/>
<path d="M111.55 26.8525C109.49 26.8525 108.707 25.9106 108.707 24.106V13.5072H111.603V23.5778C111.603 24.2028 111.752 24.4757 112.333 24.4757C112.562 24.4757 112.765 24.4493 113.011 24.4053V26.6853C112.624 26.7733 112.105 26.8525 111.55 26.8525Z" fill="black"/>
<path d="M102.545 26.8613C98.8473 26.8613 96.0215 24.775 96.0215 20.4792C96.0215 16.1921 98.8473 14.097 102.545 14.097C104.798 14.097 106.391 14.8629 107.589 16.2009L105.608 18.1816C104.895 17.2661 103.962 16.7203 102.571 16.7203C100.52 16.7203 99.173 17.9351 99.173 20.4792C99.173 23.032 100.52 24.2468 102.571 24.2468C103.962 24.2468 104.895 23.7011 105.608 22.7856L107.589 24.7662C106.4 26.0955 104.78 26.8613 102.545 26.8613Z" fill="black"/>
<path d="M81.1621 26.6853V14.2819H86.9985C90.2732 14.2819 91.7433 15.9633 91.7433 18.4193C91.7433 20.6376 90.326 22.6887 87.1481 22.6887H84.1903V26.6853H81.1621ZM84.1903 20.2063H86.7344C88.0724 20.2063 88.6974 19.4756 88.6974 18.4545C88.6974 17.3893 88.0108 16.7995 86.6639 16.7995H84.1903V20.2063Z" fill="black"/>
<path d="M67.6231 26.6853L72.0422 14.2819H75.625L80.0441 26.6853H76.9719L76.1268 24.018H71.47L70.6161 26.6853H67.6231ZM72.2183 21.6764H75.3785L74.3046 18.3048C74.1373 17.7943 73.9084 17.1164 73.794 16.6323C73.6708 17.1164 73.4595 17.7943 73.2922 18.3048L72.2183 21.6764Z" fill="black"/>
<path d="M62.4734 26.8613C59.7973 26.8613 58.0631 25.937 57.0772 24.6782L58.9346 22.8208C59.7269 23.8595 60.9153 24.4405 62.5526 24.4405C63.7586 24.4405 64.5597 24.0972 64.5597 23.2169C64.5597 22.2662 63.565 21.9757 61.8132 21.5707C59.8325 21.1042 57.7286 20.4088 57.7286 17.7855C57.7286 15.2766 59.7357 14.097 62.5614 14.097C64.5421 14.097 66.1882 14.678 67.271 15.9016L65.4752 17.6974C64.6741 16.8347 63.7322 16.4386 62.491 16.4386C61.197 16.4386 60.6952 16.914 60.6952 17.5654C60.6952 18.4369 61.5491 18.657 63.116 19.0267C65.3079 19.502 67.5263 20.1183 67.5263 22.9616C67.5263 25.3296 65.8273 26.8613 62.4734 26.8613Z" fill="black"/>
<path fill-rule="evenodd" clip-rule="evenodd" d="M25.4553 3L46.6367 15.2291L41.7573 18.0416L25.4552 8.62955L7.87503 18.7794V39.0792L25.4552 49.2291L41.7603 39.8153L46.6394 42.6276L25.4553 54.8583L3 41.8937V15.9646L25.4553 3ZM47.9106 40.4069V17.4483L43.0353 20.2584V37.5968L47.9106 40.4069Z" fill="black"/>
<path d="M26.7749 40.1248L47.5232 28.1458L47.5232 32.7615L26.7749 44.7406L26.7749 40.1248Z" fill="black"/>
<path fill-rule="evenodd" clip-rule="evenodd" d="M31.2173 29.2599L26.7773 31.8233V36.439L31.2173 33.8756V29.2599ZM33.8642 27.7317V32.3474L47.5257 24.46L47.5257 19.8442L33.8642 27.7317Z" fill="black"/>
</svg>
