<svg width="680" height="149" viewBox="0 0 680 149" fill="none" xmlns="http://www.w3.org/2000/svg">
<g clip-path="url(#clip0_78_18)">
<path d="M680 0H0V148.2H680V0Z" fill="white"/>
<path fill-rule="evenodd" clip-rule="evenodd" d="M4 107H70.4974L135.579 42H4V107Z" fill="url(#paint0_linear_78_18)"/>
<path fill-rule="evenodd" clip-rule="evenodd" d="M82.0837 54.2233L69.1338 54.2135V84.965L57.8209 54.2135H46.6024L36.9428 79.9307C35.9143 73.447 29.1969 71.2077 23.9115 69.5275C20.4226 68.4095 16.7189 66.7617 16.7547 64.945C16.784 63.4532 18.74 62.0655 22.6194 62.2735C25.2263 62.41 27.5241 62.6213 32.1 64.8248L36.6011 56.9988C32.4254 54.8765 26.6551 53.5375 21.9294 53.531H21.9034C16.3902 53.531 11.798 55.3152 8.94695 58.2532C6.96166 60.3072 5.89416 62.9138 5.8486 65.7965C5.777 69.7648 7.23505 72.5793 10.2943 74.825C12.8817 76.7198 16.1884 77.945 19.1012 78.8485C22.6975 79.96 25.6331 80.9285 25.5973 82.9922C25.5713 83.7397 25.2849 84.4417 24.7446 85.0105C23.8496 85.9335 22.473 86.2813 20.569 86.3138C16.9011 86.3918 14.1803 85.8197 9.84521 83.262L5.84534 91.1952C10.1674 93.6522 15.2836 95.092 20.5072 95.092L21.1809 95.0823C25.7275 95.001 29.3954 93.7075 32.3245 91.3513C32.4938 91.218 32.6435 91.0815 32.7997 90.9417L31.5011 94.4063H43.2664L45.2419 88.41C47.3086 89.1153 49.6617 89.5052 52.1579 89.5052C54.6542 89.5052 56.8803 89.1315 58.9079 88.4685L60.8118 94.403H80.0008V81.9913H84.1862C94.2981 81.9913 100.283 76.8433 100.283 68.2243C100.283 58.6205 94.4706 54.2135 82.0935 54.2135L82.0837 54.2233ZM52.1514 80.5352C50.6413 80.5352 49.2223 80.2752 48.0018 79.8137L52.1058 66.8788H52.184L56.2164 79.8495C55.0057 80.2785 53.6192 80.5352 52.1514 80.5352ZM82.8453 73.1025H79.991V62.6798H82.8453C86.6499 62.6798 89.6831 63.9407 89.6831 67.8212C89.6831 71.7017 86.6499 73.1025 82.8453 73.1025Z" fill="white"/>
<path d="M658.338 95.3882C648.22 95.3882 641.879 89.6027 641.879 79.0681C641.879 68.1016 649.114 62.7192 657.703 62.7192C668.253 62.7192 672 70.4331 672 78.0894C672 79.0105 671.942 79.9603 671.885 80.8526H649.575C650.094 86.8395 653.207 89.6891 658.683 89.6891C662.229 89.6891 664.592 88.6529 666.725 86.1775L670.962 90.4087C668.022 93.7187 664.419 95.3882 658.338 95.3882ZM649.69 76.3337H664.736C664.333 70.7785 661.623 68.3319 657.531 68.3319C653.495 68.3319 650.411 70.7785 649.69 76.3337Z" fill="#012A86"/>
<path d="M623.295 94.8125V63.3236H630.357V70.0877H630.472C631.538 65.0506 633.902 62.7192 637.851 62.7192C639.004 62.7192 639.984 62.9207 640.56 63.1221V69.9438C639.782 69.7423 638.629 69.5696 637.534 69.5696C632.345 69.5696 630.587 73.1387 630.587 78.9817V94.8125H623.295Z" fill="#012A86"/>
<path d="M598.369 95.3882C591.624 95.3882 588.569 90.7828 588.569 84.0764V63.3236H595.89V82.3494C595.89 86.5517 597.332 89.1422 601.569 89.1422C605.921 89.1422 608.63 86.2351 608.63 80.939V63.3236H615.894V94.8125H608.861V88.1636H608.717C607.276 91.7903 604.422 95.3882 598.369 95.3882Z" fill="#012A86"/>
<path d="M578.545 95.3306C572.204 95.3306 569.408 92.9992 569.408 86.9547V68.9651H564.796V65.6263L575.317 55.1492H576.701V63.3236H583.532V68.9651H576.701V85.5443C576.701 88.3075 577.594 89.0558 580.073 89.0558C581.312 89.0558 582.494 88.8544 583.532 88.5665V94.8125C582.264 95.1291 580.39 95.3306 578.545 95.3306Z" fill="#012A86"/>
<path d="M551.833 95.3882C542.523 95.3882 535.951 89.5164 535.951 79.0681C535.951 68.591 542.523 62.7192 551.833 62.7192C557.799 62.7192 561.921 65.0794 564.429 68.4758L559.759 72.5918C557.943 70.0589 555.522 68.6485 552.15 68.6485C547.048 68.6485 543.589 72.1025 543.589 79.0681C543.589 86.0336 547.048 89.4876 552.15 89.4876C555.493 89.4876 557.914 88.0484 559.759 85.5155L564.429 89.6603C561.921 93.0567 557.799 95.3882 551.833 95.3882Z" fill="#012A86"/>
<path d="M513.014 95.3882C506.269 95.3882 503.214 90.7828 503.214 84.0764V63.3236H510.535V82.3494C510.535 86.5517 511.976 89.1422 516.213 89.1422C520.566 89.1422 523.275 86.2351 523.275 80.939V63.3236H530.539V94.8125H523.506V88.1636H523.362C521.92 91.7903 519.067 95.3882 513.014 95.3882Z" fill="#012A86"/>
<path d="M481.574 94.8125V63.3236H488.636V70.0877H488.751C489.818 65.0506 492.181 62.7192 496.13 62.7192C497.283 62.7192 498.263 62.9207 498.84 63.1221V69.9438C498.061 69.7423 496.908 69.5696 495.813 69.5696C490.625 69.5696 488.867 73.1387 488.867 78.9817V94.8125H481.574Z" fill="#012A86"/>
<path d="M470.715 95.3306C464.373 95.3306 461.577 92.9992 461.577 86.9547V68.9651H456.966V65.6263L467.486 55.1492H468.87V63.3236H475.701V68.9651H468.87V85.5443C468.87 88.3075 469.763 89.0558 472.242 89.0558C473.482 89.0558 474.663 88.8544 475.701 88.5665V94.8125C474.433 95.1291 472.559 95.3306 470.715 95.3306Z" fill="#012A86"/>
<path d="M442.849 95.3882C437.344 95.3882 432.876 93.8339 429.821 90.5238L434.202 86.1487C436.709 88.9119 439.419 89.7754 442.734 89.7754C445.933 89.7754 448.441 88.8544 448.441 86.2639C448.441 83.4143 445.76 82.6372 441.235 81.4571C436.364 80.1906 431.291 78.147 431.291 71.9298C431.291 66.0868 435.787 62.7192 443.252 62.7192C448.124 62.7192 452.13 64.2159 454.955 67.0079L450.689 71.2678C448.556 69.0803 445.933 68.2743 443.368 68.2743C440.341 68.2743 438.352 69.3105 438.352 71.6132C438.352 73.9446 440.918 74.693 445.184 75.8156C450.17 77.082 455.531 78.809 455.531 85.7458C455.531 91.8478 450.602 95.3882 442.849 95.3882Z" fill="#012A86"/>
<path d="M408.354 95.3882C402.848 95.3882 398.928 92.1069 398.928 86.2351C398.928 79.471 404.463 76.3049 412.649 76.3049H418.356V74.4915C418.356 70.6921 416.511 68.6197 412.677 68.6197C409.103 68.6197 406.596 70.1453 404.636 72.6206L400.283 68.3031C403.194 65.137 407.143 62.7192 413.456 62.7192C421.469 62.7192 425.619 66.8927 425.619 74.5203V94.8125H418.586V88.9695H418.413C416.482 93.3733 413.311 95.3882 408.354 95.3882ZM406.192 85.5443C406.192 88.1636 407.979 89.7754 410.948 89.7754C415.646 89.7754 418.356 86.2351 418.356 82.5221V80.4784H413.888C409.709 80.4784 406.192 81.601 406.192 85.5443Z" fill="#012A86"/>
<path d="M380.488 94.8125V63.3236H387.55V70.0877H387.665C388.732 65.0506 391.095 62.7192 395.044 62.7192C396.197 62.7192 397.177 62.9207 397.754 63.1221V69.9438C396.975 69.7423 395.822 69.5696 394.727 69.5696C389.539 69.5696 387.781 73.1387 387.781 78.9817V94.8125H380.488Z" fill="#012A86"/>
<path d="M362.048 60.3014C362.048 55.0341 364.613 51.321 372.107 51.321C373.75 51.321 375.249 51.4937 376.171 51.7528V57.5094C375.422 57.2504 374.327 57.0489 373.145 57.0489C369.974 57.0489 369.34 58.4593 369.34 60.8771V63.3236H376.171V68.9651H369.34V94.8125H362.048V68.9651H358.041V63.3236H362.048V60.3014Z" fill="#012A86"/>
<path d="M326.89 94.8125V63.3236H333.952V69.9438H334.067C335.508 66.3459 338.39 62.7192 344.415 62.7192C351.188 62.7192 354.215 67.3245 354.215 74.031V94.8125H346.922V75.7868C346.922 71.5556 345.452 68.9939 341.215 68.9939C336.863 68.9939 334.182 71.8722 334.182 77.1684V94.8125H326.89Z" fill="#012A86"/>
<path d="M311.39 94.8125V54.2569H319.057V94.8125H311.39Z" fill="#012A86"/>
<path d="M272.145 95.3882C264.132 95.3882 258.771 89.1998 258.771 79.0681C258.771 69.253 263.7 62.7192 271.857 62.7192C277.997 62.7192 281.542 66.0005 283.012 69.5696H283.156V51.8967H290.449V94.8125H283.415V88.3363H283.271C281.744 91.963 278.804 95.3882 272.145 95.3882ZM266.41 79.0681C266.41 85.8321 269.897 89.4876 274.826 89.4876C279.726 89.4876 283.214 85.8321 283.214 79.0681C283.214 72.2752 279.726 68.6485 274.826 68.6485C269.897 68.6485 266.41 72.2752 266.41 79.0681Z" fill="#012A86"/>
<path d="M235.748 95.3882C229.003 95.3882 225.948 90.7828 225.948 84.0764V63.3236H233.269V82.3494C233.269 86.5517 234.71 89.1422 238.947 89.1422C243.3 89.1422 246.009 86.2351 246.009 80.939V63.3236H253.273V94.8125H246.24V88.1636H246.096C244.655 91.7903 241.801 95.3882 235.748 95.3882Z" fill="#012A86"/>
<path d="M204.769 95.3882C195.344 95.3882 188.715 88.9983 188.715 79.0681C188.715 69.1378 195.344 62.7192 204.769 62.7192C214.195 62.7192 220.824 69.1378 220.824 79.0681C220.824 88.9983 214.195 95.3882 204.769 95.3882ZM196.353 79.0681C196.353 85.8321 199.869 89.4876 204.769 89.4876C209.669 89.4876 213.186 85.8321 213.186 79.0681C213.186 72.2752 209.669 68.6485 204.769 68.6485C199.869 68.6485 196.353 72.2752 196.353 79.0681Z" fill="#012A86"/>
<path d="M181.89 95.3306C175.953 95.3306 173.675 92.5098 173.675 87.0698V51.8967H180.997V85.8033C180.997 88.2499 181.573 89.1134 183.677 89.1134C184.571 89.1134 185.349 88.9695 186.185 88.7968V94.8125C185.032 95.1003 183.476 95.3306 181.89 95.3306Z" fill="#012A86"/>
<path d="M153.909 95.3882C142.351 95.3882 133.243 88.7392 133.243 74.5203C133.243 60.3302 142.351 53.6525 153.909 53.6525C160.942 53.6525 166.188 56.099 169.878 60.3302L164.718 65.4824C162.383 62.4601 159.069 60.4453 153.938 60.4453C145.925 60.4453 141.169 65.3385 141.169 74.5203C141.169 83.7309 145.925 88.6241 153.938 88.6241C159.069 88.6241 162.383 86.6093 164.718 83.587L169.878 88.7392C166.217 92.9416 160.913 95.3882 153.909 95.3882Z" fill="#012A86"/>
</g>
<defs>
<linearGradient id="paint0_linear_78_18" x1="337.992" y1="42" x2="337.992" y2="107" gradientUnits="userSpaceOnUse">
<stop stop-color="#00B8F1"/>
<stop offset="0.02" stop-color="#00B5EF"/>
<stop offset="0.31" stop-color="#0D90D8"/>
<stop offset="0.58" stop-color="#1675C8"/>
<stop offset="0.82" stop-color="#1C64BE"/>
<stop offset="1" stop-color="#1E5FBB"/>
</linearGradient>
<clipPath id="clip0_78_18">
<rect width="680" height="148.6" fill="white"/>
</clipPath>
</defs>
</svg>
